HIERARCHY
ROOT Hips
{
	OFFSET 0.00000 0.00000 0.00000
	CHANNELS 6 Xposition Yposition Zposition Zrotation Yrotation Xrotation 
	JOINT LHipJoint
	{
		OFFSET 0 0 0
		CHANNELS 3 Zrotation Yrotation Xrotation
		JOINT LeftUpLeg
		{
			OFFSET 1.53794 -1.55850 0.93568
			CHANNELS 3 Zrotation Yrotation Xrotation
			JOINT LeftLeg
			{
				OFFSET 2.28545 -6.27922 0.00000
				CHANNELS 3 Zrotation Yrotation Xrotation
				JOINT LeftFoot
				{
					OFFSET 2.37329 -6.52057 0.00000
					CHANNELS 3 Zrotation Yrotation Xrotation
					JOINT LeftToeBase
					{
						OFFSET 0.14846 -0.40788 2.09160
						CHANNELS 3 Zrotation Yrotation Xrotation
						End Site
						{
							OFFSET 0.00000 -0.00000 1.07536
						}
					}
				}
			}
		}
	}
	JOINT RHipJoint
	{
		OFFSET 0 0 0
		CHANNELS 3 Zrotation Yrotation Xrotation
		JOINT RightUpLeg
		{
			OFFSET -1.78290 -1.55850 0.93568
			CHANNELS 3 Zrotation Yrotation Xrotation
			JOINT RightLeg
			{
				OFFSET -2.24144 -6.15831 0.00000
				CHANNELS 3 Zrotation Yrotation Xrotation
				JOINT RightFoot
				{
					OFFSET -2.35091 -6.45907 0.00000
					CHANNELS 3 Zrotation Yrotation Xrotation
					JOINT RightToeBase
					{
						OFFSET -0.14428 -0.39641 2.07944
						CHANNELS 3 Zrotation Yrotation Xrotation
						End Site
						{
							OFFSET -0.00000 -0.00000 1.06864
						}
					}
				}
			}
		}
	}
	JOINT LowerBack
	{
		OFFSET 0 0 0
		CHANNELS 3 Zrotation Yrotation Xrotation
		JOINT Spine
		{
			OFFSET -0.08841 2.11430 -0.15818
			CHANNELS 3 Zrotation Yrotation Xrotation
			JOINT Spine1
			{
				OFFSET -0.00033 2.12605 -0.08097
				CHANNELS 3 Zrotation Yrotation Xrotation
				JOINT Neck
				{
					OFFSET 0 0 0
					CHANNELS 3 Zrotation Yrotation Xrotation
					JOINT Neck1
					{
						OFFSET 0.04431 1.59447 0.43193
						CHANNELS 3 Zrotation Yrotation Xrotation
						JOINT Head
						{
							OFFSET 0.00455 1.62017 -0.58852
							CHANNELS 3 Zrotation Yrotation Xrotation
							End Site
							{
								OFFSET -0.00920 1.72955 -0.25850
							}
						}
					}
				}
				JOINT LeftShoulder
				{
					OFFSET 0 0 0
					CHANNELS 3 Zrotation Yrotation Xrotation
					JOINT LeftArm
					{
						OFFSET 2.86490 1.49927 -0.33774
						CHANNELS 3 Zrotation Yrotation Xrotation
						JOINT LeftForeArm
						{
							OFFSET 4.87408 -0.00000 0.00000
							CHANNELS 3 Zrotation Yrotation Xrotation
							JOINT LeftHand
							{
								OFFSET 2.76729 -0.00000 0.00000
								CHANNELS 3 Zrotation Yrotation Xrotation
								JOINT LeftFingerBase
								{
									OFFSET 0 0 0
									CHANNELS 3 Zrotation Yrotation Xrotation
									JOINT LeftHandIndex1
									{
										OFFSET 0.98922 -0.00000 0.00000
										CHANNELS 3 Zrotation Yrotation Xrotation
										End Site
										{
											OFFSET 0.79753 -0.00000 0.00000
										}
									}
								}
								JOINT LThumb
								{
									OFFSET 0 0 0
									CHANNELS 3 Zrotation Yrotation Xrotation
									End Site
									{
										OFFSET 0.80972 -0.00000 0.80972
									}
								}
							}
						}
					}
				}
				JOINT RightShoulder
				{
					OFFSET 0 0 0
					CHANNELS 3 Zrotation Yrotation Xrotation
					JOINT RightArm
					{
						OFFSET -2.94414 1.45463 -0.25291
						CHANNELS 3 Zrotation Yrotation Xrotation
						JOINT RightForeArm
						{
							OFFSET -4.71404 -0.00000 0.00000
							CHANNELS 3 Zrotation Yrotation Xrotation
							JOINT RightHand
							{
								OFFSET -2.83468 -0.00000 0.00000
								CHANNELS 3 Zrotation Yrotation Xrotation
								JOINT RightFingerBase
								{
									OFFSET 0 0 0
									CHANNELS 3 Zrotation Yrotation Xrotation
									JOINT RightHandIndex1
									{
										OFFSET -0.86820 -0.00000 0.00000
										CHANNELS 3 Zrotation Yrotation Xrotation
										End Site
										{
											OFFSET -0.69996 -0.00000 0.00000
										}
									}
								}
								JOINT RThumb
								{
									OFFSET 0 0 0
									CHANNELS 3 Zrotation Yrotation Xrotation
									End Site
									{
										OFFSET -0.71065 -0.00000 0.71065
									}
								}
							}
						}
					}
				}
			}
		}
	}
}
MOTION
Frames: 6
Frame Time: 0.05
0.00 0.00 0.00 177.2810 0.8105 -170.5610 0.0000 0.0000 0.0000 -24.2099 -13.2091 -15.2865 3.1391 10.9169 32.0003 -1.1299 20.0972 -16.2688 0.0010 0.2062 0.5666 0.0000 0.0000 0.0000 20.1485 12.5781 -12.0734 -3.0873 -10.8351 31.7258 -0.6367 -14.7803 -26.7063 -0.1486 2.4845 -6.8466 -5.4429 -0.0348 -6.3650 -0.5999 0.4587 1.3391 2.4820 0.0899 4.9375 -0.2778 0.2518 -37.4382 2.5712 -2.9279 39.5832 0.3299 -1.2874 23.9921 -0.0000 0.0000 0.0000 -88.7688 2.0118 -56.4926 5.7455 -9.8370 -0.4948 -0.0000 -0.0000 109.1660 1.2465 4.9209 0.1069 -7.1250 0.0000 -0.0000 -20.6990 34.2652 5.7744 -0.0000 0.0000 0.0000 90.5012 -8.6327 -32.4434 -8.3092 14.0528 -1.0259 0.0000 0.0000 62.0983 -2.1755 -7.0052 0.2654 7.1250 -0.0000 -0.0000 20.4885 -36.2717 4.6411
0.00 0.00 0.00 177.0840 -0.7145 -163.5020 0.0000 0.0000 0.0000 -22.3420 -19.7630 -21.0547 4.7209 13.0624 39.6025 -3.1963 30.3739 -19.1420 0.2600 -3.2807 -9.0612 0.0000 0.0000 0.0000 20.2016 15.4189 -14.5929 -3.2993 -11.1645 32.8368 -2.6282 -16.1921 -39.6697 -0.9102 6.0792 -17.0145 -3.9478 0.9889 -3.7879 -1.5765 1.4574 -0.2398 0.6682 0.6751 1.8187 -0.7267 -0.8811 -40.8264 2.4098 -3.6403 38.5274 0.1648 -1.3967 24.2162 -0.0000 0.0000 0.0000 -84.5967 -0.8982 38.7413 26.6215 -37.8158 -9.2661 -0.0000 -0.0000 31.1343 0.4697 6.4009 0.0524 -7.1250 0.0000 -0.0000 -21.6845 35.5999 5.3273 -0.0000 0.0000 0.0000 88.5310 2.6707 33.4632 -29.3685 40.3460 -10.9985 0.0000 0.0000 18.9380 -1.7907 -7.4973 0.2337 7.1250 -0.0000 -0.0000 20.9271 -36.7069 4.5146
0.00 0.00 0.00 176.9050 0.6717 -161.0530 0.0000 0.0000 0.0000 -24.8363 -12.0625 -21.9492 7.2978 15.5776 49.9917 -2.8187 28.6835 -17.6646 0.5500 -4.7511 -13.2000 0.0000 0.0000 0.0000 19.6398 13.1703 -16.5392 -6.7167 -15.0886 47.7945 -1.2390 -17.9124 -33.9345 -1.8149 8.4693 -24.1489 -6.6104 1.4613 -3.1379 -2.5764 2.3396 -0.8745 1.1315 1.2317 0.7096 -2.4868 -3.8266 -42.9490 5.9461 -7.4700 34.1267 1.2652 -2.2387 21.2692 -0.0000 0.0000 0.0000 -69.5853 4.9845 60.2745 57.6384 -55.6471 -32.3836 -0.0000 -0.0000 20.5929 3.4239 4.9011 0.2929 -7.1250 0.0000 -0.0000 -18.9840 34.3618 5.1988 -0.0000 0.0000 0.0000 85.5929 -0.7259 44.7570 -55.1757 54.8810 -30.3596 0.0000 0.0000 13.6426 -5.8910 -5.1157 0.5271 7.1250 -0.0000 -0.0000 17.0719 -34.6935 4.4874
0.00 0.00 0.00 175.3950 1.1023 -162.0310 0.0000 0.0000 0.0000 -27.1236 -9.5112 -18.8630 7.1011 15.4164 49.2555 -2.5712 27.5173 -16.7905 0.7166 -5.4096 -15.0806 0.0000 0.0000 0.0000 16.6922 12.2782 -24.3703 -11.5746 -18.2050 64.6338 -0.5650 -17.2598 -28.9421 -2.1625 9.1967 -26.4125 -8.3287 0.7211 -1.6613 -3.1100 1.3780 0.0494 1.4843 0.7509 0.8803 -2.2360 -3.8180 -42.7841 5.8699 -7.2755 32.5747 1.2224 -2.1404 20.2232 -0.0000 0.0000 0.0000 -69.9224 3.2472 59.5266 59.9180 -56.2880 -34.2729 -0.0000 -0.0000 20.0864 4.4695 5.2093 0.4066 -7.1250 0.0000 -0.0000 -18.2250 34.7092 4.8097 -0.0000 0.0000 0.0000 85.1306 -4.6968 43.8214 -54.4716 54.6471 -29.7846 0.0000 0.0000 13.6165 -7.4468 -5.7551 0.7509 7.1250 -0.0000 -0.0000 15.9563 -35.3921 3.8916
0.00 0.00 0.00 174.3210 0.3175 -163.0650 0.0000 0.0000 0.0000 -28.9002 -7.5004 -12.8586 6.2548 14.6708 45.9958 -2.4391 26.5304 -13.7920 0.8609 -5.9168 -16.5432 0.0000 0.0000 0.0000 13.0862 11.3138 -38.7837 -18.0329 -19.9070 84.2401 -0.5941 -16.9613 -28.8087 -1.7669 8.3626 -23.8208 -9.5694 -0.1470 1.0046 -3.2479 -0.5215 1.1976 1.9932 -0.4455 0.7160 -1.7269 -3.3198 -41.9945 5.8537 -6.6921 31.3056 1.2764 -1.8860 19.2488 0.0000 0.0000 0.0000 -73.4523 -3.0330 58.2412 64.4753 -57.3891 -38.0888 -0.0000 -0.0000 20.1272 7.1046 5.2519 0.6536 -7.1250 0.0000 -0.0000 -16.1282 34.8870 4.1426 0.0000 0.0000 0.0000 84.7808 -11.0233 38.6585 -43.6682 50.0991 -21.2121 0.0000 0.0000 16.4015 -9.2329 -7.5020 1.2158 7.1250 -0.0000 -0.0000 14.8662 -37.1981 2.9331
0.00 0.00 0.00 173.1760 -1.7285 -162.2350 0.0000 0.0000 0.0000 -29.9914 -4.1784 1.3765 2.7356 10.2542 29.8037 -1.2516 20.1695 -1.4110 0.7471 -5.5212 -15.4012 0.0000 0.0000 0.0000 7.5684 11.8641 -64.4849 -19.6621 -19.9973 89.0120 -0.5130 -16.2789 -27.4326 -1.8982 8.6506 -24.7084 -11.1196 -2.0240 4.5509 -2.2985 -3.4805 2.5581 3.9399 -2.0008 0.6136 -0.4359 -2.1761 -41.6280 4.7417 -4.6424 28.8550 1.1055 -0.9839 17.6300 -0.0000 0.0000 0.0000 -77.0459 -17.4207 61.3031 83.7160 -59.8503 -54.5606 -0.0000 -0.0000 20.8859 11.9668 5.1929 1.0990 -7.1250 0.0000 -0.0000 -12.1819 35.0715 3.0273 -0.0000 0.0000 0.0000 81.8692 -26.3926 25.5856 -30.5229 41.3374 -11.7535 0.0000 0.0000 14.4019 -7.8745 -11.6889 1.6051 7.1250 -0.0000 -0.0000 17.0458 -41.1555 1.6709
